<svg xmlns="http://www.w3.org/2000/svg" viewBox="0 0 1600 900" width="1600" height="900"><rect width="1600" height="900" fill="#b7b3ac"/><rect x="-40" y="40" width="118" height="96" rx="10" fill="#9b968d" stroke="#5a554d" stroke-width="3"/><circle cx="19" cy="88" r="26" fill="none" stroke="#5a554d" stroke-width="2.5" opacity="0.6"/><rect x="86" y="40" width="118" height="96" rx="10" fill="#7a746b" stroke="#5a554d" stroke-width="3"/><circle cx="145" cy="88" r="26" fill="none" stroke="#5a554d" stroke-width="2.5" opacity="0.6"/><rect x="212" y="40" width="118" height="96" rx="10" fill="#9b968d" stroke="#5a554d" stroke-width="3"/><circle cx="271" cy="88" r="26" fill="none" stroke="#5a554d" stroke-width="2.5" opacity="0.6"/><rect x="338" y="40" width="118" height="96" rx="10" fill="#8c877e" stroke="#5a554d" stroke-width="3"/><circle cx="397" cy="88" r="26" fill="none" stroke="#5a554d" stroke-width="2.5" opacity="0.6"/><rect x="464" y="40" width="118" height="96" rx="10" fill="#9b968d" stroke="#5a554d" stroke-width="3"/><circle cx="523" cy="88" r="26" fill="none" stroke="#5a554d" stroke-width="2.5" opacity="0.6"/><rect x="590" y="40" width="118" height="96" rx="10" fill="#9b968d" stroke="#5a554d" stroke-width="3"/><circle cx="649" cy="88" r="26" fill="none" stroke="#5a554d" stroke-width="2.5" opacity="0.6"/><rect x="716" y="40" width="118" height="96" rx="10" fill="#9b968d" stroke="#5a554d" stroke-width="3"/><circle cx="775" cy="88" r="26" fill="none" stroke="#5a554d" stroke-width="2.5" opacity="0.6"/><rect x="842" y="40" width="118" height="96" rx="10" fill="#8c877e" stroke="#5a554d" stroke-width="3"/><circle cx="901" cy="88" r="26" fill="none" stroke="#5a554d" stroke-width="2.5" opacity="0.6"/><rect x="968" y="40" width="118" height="96" rx="10" fill="#9b968d" stroke="#5a554d" stroke-width="3"/><circle cx="1027" cy="88" r="26" fill="none" stroke="#5a554d" stroke-width="2.5" opacity="0.6"/><rect x="1094" y="40" width="118" height="96" rx="10" fill="#9b968d" stroke="#5a554d" stroke-width="3"/><circle cx="1153" cy="88" r="26" fill="none" stroke="#5a554d" stroke-width="2.5" opacity="0.6"/><rect x="1220" y="40" width="118" height="96" rx="10" fill="#7a746b" stroke="#5a554d" stroke-width="3"/><circle cx="1279" cy="88" r="26" fill="none" stroke="#5a554d" stroke-width="2.5" opacity="0.6"/><rect x="1346" y="40" width="118" height="96" rx="10" fill="#8c877e" stroke="#5a554d" stroke-width="3"/><circle cx="1405" cy="88" r="26" fill="none" stroke="#5a554d" stroke-width="2.5" opacity="0.6"/><rect x="1472" y="40" width="118" height="96" rx="10" fill="#9b968d" stroke="#5a554d" stroke-width="3"/><circle cx="1531" cy="88" r="26" fill="none" stroke="#5a554d" stroke-width="2.5" opacity="0.6"/><rect x="20" y="148" width="118" height="96" rx="10" fill="#9b968d" stroke="#5a554d" stroke-width="3"/><circle cx="79" cy="196" r="26" fill="none" stroke="#5a554d" stroke-width="2.5" opacity="0.6"/><rect x="146" y="148" width="118" height="96" rx="10" fill="#9b968d" stroke="#5a554d" stroke-width="3"/><circle cx="205" cy="196" r="26" fill="none" stroke="#5a554d" stroke-width="2.5" opacity="0.6"/><rect x="272" y="148" width="118" height="96" rx="10" fill="#7a746b" stroke="#5a554d" stroke-width="3"/><circle cx="331" cy="196" r="26" fill="none" stroke="#5a554d" stroke-width="2.5" opacity="0.6"/><rect x="398" y="148" width="118" height="96" rx="10" fill="#8c877e" stroke="#5a554d" stroke-width="3"/><circle cx="457" cy="196" r="26" fill="none" stroke="#5a554d" stroke-width="2.5" opacity="0.6"/><rect x="524" y="148" width="118" height="96" rx="10" fill="#9b968d" stroke="#5a554d" stroke-width="3"/><circle cx="583" cy="196" r="26" fill="none" stroke="#5a554d" stroke-width="2.5" opacity="0.6"/><rect x="650" y="148" width="118" height="96" rx="10" fill="#7a746b" stroke="#5a554d" stroke-width="3"/><circle cx="709" cy="196" r="26" fill="none" stroke="#5a554d" stroke-width="2.5" opacity="0.6"/><rect x="776" y="148" width="118" height="96" rx="10" fill="#7a746b" stroke="#5a554d" stroke-width="3"/><circle cx="835" cy="196" r="26" fill="none" stroke="#5a554d" stroke-width="2.5" opacity="0.6"/><rect x="902" y="148" width="118" height="96" rx="10" fill="#9b968d" stroke="#5a554d" stroke-width="3"/><circle cx="961" cy="196" r="26" fill="none" stroke="#5a554d" stroke-width="2.5" opacity="0.6"/><rect x="1028" y="148" width="118" height="96" rx="10" fill="#7a746b" stroke="#5a554d" stroke-width="3"/><circle cx="1087" cy="196" r="26" fill="none" stroke="#5a554d" stroke-width="2.5" opacity="0.6"/><rect x="1154" y="148" width="118" height="96" rx="10" fill="#8c877e" stroke="#5a554d" stroke-width="3"/><circle cx="1213" cy="196" r="26" fill="none" stroke="#5a554d" stroke-width="2.5" opacity="0.6"/><rect x="1280" y="148" width="118" height="96" rx="10" fill="#7a746b" stroke="#5a554d" stroke-width="3"/><circle cx="1339" cy="196" r="26" fill="none" stroke="#5a554d" stroke-width="2.5" opacity="0.6"/><rect x="1406" y="148" width="118" height="96" rx="10" fill="#8c877e" stroke="#5a554d" stroke-width="3"/><circle cx="1465" cy="196" r="26" fill="none" stroke="#5a554d" stroke-width="2.5" opacity="0.6"/><rect x="1532" y="148" width="118" height="96" rx="10" fill="#9b968d" stroke="#5a554d" stroke-width="3"/><circle cx="1591" cy="196" r="26" fill="none" stroke="#5a554d" stroke-width="2.5" opacity="0.6"/><rect x="-40" y="256" width="118" height="96" rx="10" fill="#7a746b" stroke="#5a554d" stroke-width="3"/><circle cx="19" cy="304" r="26" fill="none" stroke="#5a554d" stroke-width="2.5" opacity="0.6"/><rect x="86" y="256" width="118" height="96" rx="10" fill="#8c877e" stroke="#5a554d" stroke-width="3"/><circle cx="145" cy="304" r="26" fill="none" stroke="#5a554d" stroke-width="2.5" opacity="0.6"/><rect x="212" y="256" width="118" height="96" rx="10" fill="#7a746b" stroke="#5a554d" stroke-width="3"/><circle cx="271" cy="304" r="26" fill="none" stroke="#5a554d" stroke-width="2.5" opacity="0.6"/><rect x="338" y="256" width="118" height="96" rx="10" fill="#8c877e" stroke="#5a554d" stroke-width="3"/><circle cx="397" cy="304" r="26" fill="none" stroke="#5a554d" stroke-width="2.5" opacity="0.6"/><rect x="464" y="256" width="118" height="96" rx="10" fill="#8c877e" stroke="#5a554d" stroke-width="3"/><circle cx="523" cy="304" r="26" fill="none" stroke="#5a554d" stroke-width="2.5" opacity="0.6"/><rect x="590" y="256" width="118" height="96" rx="10" fill="#7a746b" stroke="#5a554d" stroke-width="3"/><circle cx="649" cy="304" r="26" fill="none" stroke="#5a554d" stroke-width="2.5" opacity="0.6"/><rect x="716" y="256" width="118" height="96" rx="10" fill="#7a746b" stroke="#5a554d" stroke-width="3"/><circle cx="775" cy="304" r="26" fill="none" stroke="#5a554d" stroke-width="2.5" opacity="0.6"/><rect x="842" y="256" width="118" height="96" rx="10" fill="#9b968d" stroke="#5a554d" stroke-width="3"/><circle cx="901" cy="304" r="26" fill="none" stroke="#5a554d" stroke-width="2.5" opacity="0.6"/><rect x="968" y="256" width="118" height="96" rx="10" fill="#9b968d" stroke="#5a554d" stroke-width="3"/><circle cx="1027" cy="304" r="26" fill="none" stroke="#5a554d" stroke-width="2.5" opacity="0.6"/><rect x="1094" y="256" width="118" height="96" rx="10" fill="#7a746b" stroke="#5a554d" stroke-width="3"/><circle cx="1153" cy="304" r="26" fill="none" stroke="#5a554d" stroke-width="2.5" opacity="0.6"/><rect x="1220" y="256" width="118" height="96" rx="10" fill="#9b968d" stroke="#5a554d" stroke-width="3"/><circle cx="1279" cy="304" r="26" fill="none" stroke="#5a554d" stroke-width="2.5" opacity="0.6"/><rect x="1346" y="256" width="118" height="96" rx="10" fill="#7a746b" stroke="#5a554d" stroke-width="3"/><circle cx="1405" cy="304" r="26" fill="none" stroke="#5a554d" stroke-width="2.5" opacity="0.6"/><rect x="1472" y="256" width="118" height="96" rx="10" fill="#7a746b" stroke="#5a554d" stroke-width="3"/><circle cx="1531" cy="304" r="26" fill="none" stroke="#5a554d" stroke-width="2.5" opacity="0.6"/><rect x="20" y="364" width="118" height="96" rx="10" fill="#9b968d" stroke="#5a554d" stroke-width="3"/><circle cx="79" cy="412" r="26" fill="none" stroke="#5a554d" stroke-width="2.5" opacity="0.6"/><rect x="146" y="364" width="118" height="96" rx="10" fill="#9b968d" stroke="#5a554d" stroke-width="3"/><circle cx="205" cy="412" r="26" fill="none" stroke="#5a554d" stroke-width="2.5" opacity="0.6"/><rect x="272" y="364" width="118" height="96" rx="10" fill="#8c877e" stroke="#5a554d" stroke-width="3"/><circle cx="331" cy="412" r="26" fill="none" stroke="#5a554d" stroke-width="2.5" opacity="0.6"/><rect x="398" y="364" width="118" height="96" rx="10" fill="#9b968d" stroke="#5a554d" stroke-width="3"/><circle cx="457" cy="412" r="26" fill="none" stroke="#5a554d" stroke-width="2.5" opacity="0.6"/><rect x="524" y="364" width="118" height="96" rx="10" fill="#9b968d" stroke="#5a554d" stroke-width="3"/><circle cx="583" cy="412" r="26" fill="none" stroke="#5a554d" stroke-width="2.5" opacity="0.6"/><rect x="650" y="364" width="118" height="96" rx="10" fill="#8c877e" stroke="#5a554d" stroke-width="3"/><circle cx="709" cy="412" r="26" fill="none" stroke="#5a554d" stroke-width="2.5" opacity="0.6"/><rect x="776" y="364" width="118" height="96" rx="10" fill="#9b968d" stroke="#5a554d" stroke-width="3"/><circle cx="835" cy="412" r="26" fill="none" stroke="#5a554d" stroke-width="2.5" opacity="0.6"/><rect x="902" y="364" width="118" height="96" rx="10" fill="#7a746b" stroke="#5a554d" stroke-width="3"/><circle cx="961" cy="412" r="26" fill="none" stroke="#5a554d" stroke-width="2.5" opacity="0.6"/><rect x="1028" y="364" width="118" height="96" rx="10" fill="#7a746b" stroke="#5a554d" stroke-width="3"/><circle cx="1087" cy="412" r="26" fill="none" stroke="#5a554d" stroke-width="2.5" opacity="0.6"/><rect x="1154" y="364" width="118" height="96" rx="10" fill="#7a746b" stroke="#5a554d" stroke-width="3"/><circle cx="1213" cy="412" r="26" fill="none" stroke="#5a554d" stroke-width="2.5" opacity="0.6"/><rect x="1280" y="364" width="118" height="96" rx="10" fill="#8c877e" stroke="#5a554d" stroke-width="3"/><circle cx="1339" cy="412" r="26" fill="none" stroke="#5a554d" stroke-width="2.5" opacity="0.6"/><rect x="1406" y="364" width="118" height="96" rx="10" fill="#8c877e" stroke="#5a554d" stroke-width="3"/><circle cx="1465" cy="412" r="26" fill="none" stroke="#5a554d" stroke-width="2.5" opacity="0.6"/><rect x="1532" y="364" width="118" height="96" rx="10" fill="#9b968d" stroke="#5a554d" stroke-width="3"/><circle cx="1591" cy="412" r="26" fill="none" stroke="#5a554d" stroke-width="2.5" opacity="0.6"/><rect x="-40" y="472" width="118" height="96" rx="10" fill="#8c877e" stroke="#5a554d" stroke-width="3"/><circle cx="19" cy="520" r="26" fill="none" stroke="#5a554d" stroke-width="2.5" opacity="0.6"/><rect x="86" y="472" width="118" height="96" rx="10" fill="#9b968d" stroke="#5a554d" stroke-width="3"/><circle cx="145" cy="520" r="26" fill="none" stroke="#5a554d" stroke-width="2.5" opacity="0.6"/><rect x="212" y="472" width="118" height="96" rx="10" fill="#9b968d" stroke="#5a554d" stroke-width="3"/><circle cx="271" cy="520" r="26" fill="none" stroke="#5a554d" stroke-width="2.5" opacity="0.6"/><rect x="338" y="472" width="118" height="96" rx="10" fill="#9b968d" stroke="#5a554d" stroke-width="3"/><circle cx="397" cy="520" r="26" fill="none" stroke="#5a554d" stroke-width="2.5" opacity="0.6"/><rect x="464" y="472" width="118" height="96" rx="10" fill="#8c877e" stroke="#5a554d" stroke-width="3"/><circle cx="523" cy="520" r="26" fill="none" stroke="#5a554d" stroke-width="2.5" opacity="0.6"/><rect x="590" y="472" width="118" height="96" rx="10" fill="#9b968d" stroke="#5a554d" stroke-width="3"/><circle cx="649" cy="520" r="26" fill="none" stroke="#5a554d" stroke-width="2.5" opacity="0.6"/><rect x="716" y="472" width="118" height="96" rx="10" fill="#8c877e" stroke="#5a554d" stroke-width="3"/><circle cx="775" cy="520" r="26" fill="none" stroke="#5a554d" stroke-width="2.5" opacity="0.6"/><rect x="842" y="472" width="118" height="96" rx="10" fill="#9b968d" stroke="#5a554d" stroke-width="3"/><circle cx="901" cy="520" r="26" fill="none" stroke="#5a554d" stroke-width="2.5" opacity="0.6"/><rect x="968" y="472" width="118" height="96" rx="10" fill="#8c877e" stroke="#5a554d" stroke-width="3"/><circle cx="1027" cy="520" r="26" fill="none" stroke="#5a554d" stroke-width="2.5" opacity="0.6"/><rect x="1094" y="472" width="118" height="96" rx="10" fill="#9b968d" stroke="#5a554d" stroke-width="3"/><circle cx="1153" cy="520" r="26" fill="none" stroke="#5a554d" stroke-width="2.5" opacity="0.6"/><rect x="1220" y="472" width="118" height="96" rx="10" fill="#7a746b" stroke="#5a554d" stroke-width="3"/><circle cx="1279" cy="520" r="26" fill="none" stroke="#5a554d" stroke-width="2.5" opacity="0.6"/><rect x="1346" y="472" width="118" height="96" rx="10" fill="#8c877e" stroke="#5a554d" stroke-width="3"/><circle cx="1405" cy="520" r="26" fill="none" stroke="#5a554d" stroke-width="2.5" opacity="0.6"/><rect x="1472" y="472" width="118" height="96" rx="10" fill="#7a746b" stroke="#5a554d" stroke-width="3"/><circle cx="1531" cy="520" r="26" fill="none" stroke="#5a554d" stroke-width="2.5" opacity="0.6"/><rect x="20" y="580" width="118" height="96" rx="10" fill="#8c877e" stroke="#5a554d" stroke-width="3"/><circle cx="79" cy="628" r="26" fill="none" stroke="#5a554d" stroke-width="2.5" opacity="0.6"/><rect x="146" y="580" width="118" height="96" rx="10" fill="#9b968d" stroke="#5a554d" stroke-width="3"/><circle cx="205" cy="628" r="26" fill="none" stroke="#5a554d" stroke-width="2.5" opacity="0.6"/><rect x="272" y="580" width="118" height="96" rx="10" fill="#8c877e" stroke="#5a554d" stroke-width="3"/><circle cx="331" cy="628" r="26" fill="none" stroke="#5a554d" stroke-width="2.5" opacity="0.6"/><rect x="398" y="580" width="118" height="96" rx="10" fill="#9b968d" stroke="#5a554d" stroke-width="3"/><circle cx="457" cy="628" r="26" fill="none" stroke="#5a554d" stroke-width="2.5" opacity="0.6"/><rect x="524" y="580" width="118" height="96" rx="10" fill="#7a746b" stroke="#5a554d" stroke-width="3"/><circle cx="583" cy="628" r="26" fill="none" stroke="#5a554d" stroke-width="2.5" opacity="0.6"/><rect x="650" y="580" width="118" height="96" rx="10" fill="#9b968d" stroke="#5a554d" stroke-width="3"/><circle cx="709" cy="628" r="26" fill="none" stroke="#5a554d" stroke-width="2.5" opacity="0.6"/><rect x="776" y="580" width="118" height="96" rx="10" fill="#8c877e" stroke="#5a554d" stroke-width="3"/><circle cx="835" cy="628" r="26" fill="none" stroke="#5a554d" stroke-width="2.5" opacity="0.6"/><rect x="902" y="580" width="118" height="96" rx="10" fill="#7a746b" stroke="#5a554d" stroke-width="3"/><circle cx="961" cy="628" r="26" fill="none" stroke="#5a554d" stroke-width="2.5" opacity="0.6"/><rect x="1028" y="580" width="118" height="96" rx="10" fill="#8c877e" stroke="#5a554d" stroke-width="3"/><circle cx="1087" cy="628" r="26" fill="none" stroke="#5a554d" stroke-width="2.5" opacity="0.6"/><rect x="1154" y="580" width="118" height="96" rx="10" fill="#7a746b" stroke="#5a554d" stroke-width="3"/><circle cx="1213" cy="628" r="26" fill="none" stroke="#5a554d" stroke-width="2.5" opacity="0.6"/><rect x="1280" y="580" width="118" height="96" rx="10" fill="#7a746b" stroke="#5a554d" stroke-width="3"/><circle cx="1339" cy="628" r="26" fill="none" stroke="#5a554d" stroke-width="2.5" opacity="0.6"/><rect x="1406" y="580" width="118" height="96" rx="10" fill="#9b968d" stroke="#5a554d" stroke-width="3"/><circle cx="1465" cy="628" r="26" fill="none" stroke="#5a554d" stroke-width="2.5" opacity="0.6"/><rect x="1532" y="580" width="118" height="96" rx="10" fill="#7a746b" stroke="#5a554d" stroke-width="3"/><circle cx="1591" cy="628" r="26" fill="none" stroke="#5a554d" stroke-width="2.5" opacity="0.6"/><rect x="-40" y="688" width="118" height="96" rx="10" fill="#8c877e" stroke="#5a554d" stroke-width="3"/><circle cx="19" cy="736" r="26" fill="none" stroke="#5a554d" stroke-width="2.5" opacity="0.6"/><rect x="86" y="688" width="118" height="96" rx="10" fill="#9b968d" stroke="#5a554d" stroke-width="3"/><circle cx="145" cy="736" r="26" fill="none" stroke="#5a554d" stroke-width="2.5" opacity="0.6"/><rect x="212" y="688" width="118" height="96" rx="10" fill="#7a746b" stroke="#5a554d" stroke-width="3"/><circle cx="271" cy="736" r="26" fill="none" stroke="#5a554d" stroke-width="2.5" opacity="0.6"/><rect x="338" y="688" width="118" height="96" rx="10" fill="#8c877e" stroke="#5a554d" stroke-width="3"/><circle cx="397" cy="736" r="26" fill="none" stroke="#5a554d" stroke-width="2.5" opacity="0.6"/><rect x="464" y="688" width="118" height="96" rx="10" fill="#8c877e" stroke="#5a554d" stroke-width="3"/><circle cx="523" cy="736" r="26" fill="none" stroke="#5a554d" stroke-width="2.5" opacity="0.6"/><rect x="590" y="688" width="118" height="96" rx="10" fill="#9b968d" stroke="#5a554d" stroke-width="3"/><circle cx="649" cy="736" r="26" fill="none" stroke="#5a554d" stroke-width="2.5" opacity="0.6"/><rect x="716" y="688" width="118" height="96" rx="10" fill="#8c877e" stroke="#5a554d" stroke-width="3"/><circle cx="775" cy="736" r="26" fill="none" stroke="#5a554d" stroke-width="2.5" opacity="0.6"/><rect x="842" y="688" width="118" height="96" rx="10" fill="#7a746b" stroke="#5a554d" stroke-width="3"/><circle cx="901" cy="736" r="26" fill="none" stroke="#5a554d" stroke-width="2.5" opacity="0.6"/><rect x="968" y="688" width="118" height="96" rx="10" fill="#7a746b" stroke="#5a554d" stroke-width="3"/><circle cx="1027" cy="736" r="26" fill="none" stroke="#5a554d" stroke-width="2.5" opacity="0.6"/><rect x="1094" y="688" width="118" height="96" rx="10" fill="#8c877e" stroke="#5a554d" stroke-width="3"/><circle cx="1153" cy="736" r="26" fill="none" stroke="#5a554d" stroke-width="2.5" opacity="0.6"/><rect x="1220" y="688" width="118" height="96" rx="10" fill="#8c877e" stroke="#5a554d" stroke-width="3"/><circle cx="1279" cy="736" r="26" fill="none" stroke="#5a554d" stroke-width="2.5" opacity="0.6"/><rect x="1346" y="688" width="118" height="96" rx="10" fill="#7a746b" stroke="#5a554d" stroke-width="3"/><circle cx="1405" cy="736" r="26" fill="none" stroke="#5a554d" stroke-width="2.5" opacity="0.6"/><rect x="1472" y="688" width="118" height="96" rx="10" fill="#8c877e" stroke="#5a554d" stroke-width="3"/><circle cx="1531" cy="736" r="26" fill="none" stroke="#5a554d" stroke-width="2.5" opacity="0.6"/><rect x="20" y="796" width="118" height="96" rx="10" fill="#8c877e" stroke="#5a554d" stroke-width="3"/><circle cx="79" cy="844" r="26" fill="none" stroke="#5a554d" stroke-width="2.5" opacity="0.6"/><rect x="146" y="796" width="118" height="96" rx="10" fill="#9b968d" stroke="#5a554d" stroke-width="3"/><circle cx="205" cy="844" r="26" fill="none" stroke="#5a554d" stroke-width="2.5" opacity="0.6"/><rect x="272" y="796" width="118" height="96" rx="10" fill="#7a746b" stroke="#5a554d" stroke-width="3"/><circle cx="331" cy="844" r="26" fill="none" stroke="#5a554d" stroke-width="2.5" opacity="0.6"/><rect x="398" y="796" width="118" height="96" rx="10" fill="#7a746b" stroke="#5a554d" stroke-width="3"/><circle cx="457" cy="844" r="26" fill="none" stroke="#5a554d" stroke-width="2.5" opacity="0.6"/><rect x="524" y="796" width="118" height="96" rx="10" fill="#7a746b" stroke="#5a554d" stroke-width="3"/><circle cx="583" cy="844" r="26" fill="none" stroke="#5a554d" stroke-width="2.5" opacity="0.6"/><rect x="650" y="796" width="118" height="96" rx="10" fill="#9b968d" stroke="#5a554d" stroke-width="3"/><circle cx="709" cy="844" r="26" fill="none" stroke="#5a554d" stroke-width="2.5" opacity="0.6"/><rect x="776" y="796" width="118" height="96" rx="10" fill="#7a746b" stroke="#5a554d" stroke-width="3"/><circle cx="835" cy="844" r="26" fill="none" stroke="#5a554d" stroke-width="2.5" opacity="0.6"/><rect x="902" y="796" width="118" height="96" rx="10" fill="#8c877e" stroke="#5a554d" stroke-width="3"/><circle cx="961" cy="844" r="26" fill="none" stroke="#5a554d" stroke-width="2.5" opacity="0.6"/><rect x="1028" y="796" width="118" height="96" rx="10" fill="#8c877e" stroke="#5a554d" stroke-width="3"/><circle cx="1087" cy="844" r="26" fill="none" stroke="#5a554d" stroke-width="2.5" opacity="0.6"/><rect x="1154" y="796" width="118" height="96" rx="10" fill="#8c877e" stroke="#5a554d" stroke-width="3"/><circle cx="1213" cy="844" r="26" fill="none" stroke="#5a554d" stroke-width="2.5" opacity="0.6"/><rect x="1280" y="796" width="118" height="96" rx="10" fill="#8c877e" stroke="#5a554d" stroke-width="3"/><circle cx="1339" cy="844" r="26" fill="none" stroke="#5a554d" stroke-width="2.5" opacity="0.6"/><rect x="1406" y="796" width="118" height="96" rx="10" fill="#7a746b" stroke="#5a554d" stroke-width="3"/><circle cx="1465" cy="844" r="26" fill="none" stroke="#5a554d" stroke-width="2.5" opacity="0.6"/><rect x="1532" y="796" width="118" height="96" rx="10" fill="#9b968d" stroke="#5a554d" stroke-width="3"/><circle cx="1591" cy="844" r="26" fill="none" stroke="#5a554d" stroke-width="2.5" opacity="0.6"/></svg>